<?xml version="1.0" encoding="UTF-8" standalone="no"?>
<svg
   version="1.1"
   preserveAspectRatio="none"
   x="0px"
   y="0px"
   width="33.000004"
   height="10.017029"
   viewBox="0 0 33.000004 10.017029"
   id="svg973"
   xmlns:xlink="http://www.w3.org/1999/xlink"
   xmlns="http://www.w3.org/2000/svg"
   xmlns:svg="http://www.w3.org/2000/svg">
  <defs
     id="defs782">
    <g
       id="Layer0_54_FILL">
      <path
         fill="#2e3438"
         stroke="none"
         d="m 2797.9,1376 q -0.9,0.75 -0.9,2.25 v 3.5 q 0,1.5 0.9,2.3 0.9,1.05 2.1,0.95 h 12.95 q 1.2,0.1 2.25,-1.05 l -0.05,0.1 q 0.45,-0.45 0.65,-1.05 h 4.45 q 0.15,0.25 0.35,0.45 0.55,0.55 1.4,0.55 h 6 q 0.85,0 1.45,-0.55 0.55,-0.6 0.55,-1.45 v -4 q 0,-0.85 -0.55,-1.4 -0.6,-0.6 -1.45,-0.6 h -6 q -0.85,0 -1.4,0.6 -0.2,0.15 -0.35,0.4 h -4.45 q -0.2,-0.6 -0.65,-1 l 0.05,0.1 q -1.05,-1.2 -2.25,-1.1 H 2800 q -1.2,-0.1 -2.1,1 m 1.1,2.25 q 0,-0.55 0.3,-0.85 0.3,-0.4 0.7,-0.4 h 12.95 q 0.4,0 0.75,0.4 0.3,0.3 0.3,0.85 v 0.75 h 8 v -1 h 6 v 4 h -6 v -1 h -8 v 0.75 q 0,0.55 -0.3,0.85 -0.35,0.4 -0.75,0.4 H 2800 q -0.4,0 -0.7,-0.4 -0.3,-0.3 -0.3,-0.85 z"
         id="path774" />
      <path
         fill="#464f54"
         stroke="none"
         d="m 2822,1378 v 1 2 1 h 6 v -4 h -6 m -22.7,-0.6 q -0.3,0.3 -0.3,0.85 v 3.5 q 0,0.55 0.3,0.85 0.3,0.4 0.7,0.4 h 12.95 q 0.4,0 0.75,-0.4 0.3,-0.3 0.3,-0.85 v -0.75 -2 -0.75 q 0,-0.55 -0.3,-0.85 -0.35,-0.4 -0.75,-0.4 H 2800 q -0.4,0 -0.7,0.4 m 0.7,0.6 h 2.5 v 4 h -2.5 v -4 m 4.85,0 h 0.65 v 4 h -0.65 z"
         id="path775" />
      <path
         fill="#55636b"
         stroke="none"
         d="m 2814,1379 v 2 h 8 v -2 h -8 m -8.5,-1 h -0.65 v 4 h 0.65 v -4 m -3,0 h -2.5 v 4 h 2.5 z"
         id="path776" />
    </g>
  </defs>
  <g
     transform="translate(-2797,-1374.9916)"
     id="g971">
    <use
       xlink:href="#Layer0_54_FILL"
       id="use971" />
  </g>
</svg>
