<?xml version="1.0" encoding="UTF-8" standalone="no"?>
<svg
   version="1.1"
   preserveAspectRatio="none"
   x="0px"
   y="0px"
   width="19"
   height="10.004639"
   viewBox="0 0 19 10.004639"
   id="svg973"
   xmlns:xlink="http://www.w3.org/1999/xlink"
   xmlns="http://www.w3.org/2000/svg"
   xmlns:svg="http://www.w3.org/2000/svg">
  <defs
     id="defs782">
    <g
       id="Layer0_56_FILL">
      <path
         fill="#2e3438"
         stroke="none"
         d="m 2812.5,1336 h -12.05 q -1.3,-0.05 -2.3,0.95 -1.05,0.9 -1.15,2.05 v 3.55 q 0,1.55 1.05,2.45 1.05,1.05 2.4,1 h 12.05 q 1.4,0 2.5,-1 1,-0.9 1,-2.45 v -3.15 q 0,-0.1 0,-0.2 v -0.2 q -0.1,-1.1 -1,-1.95 -0.05,-0.05 -0.1,-0.1 -1.05,-0.95 -2.4,-0.95 m 1.5,3 v 3.55 q 0,0.65 -0.45,1 -0.45,0.45 -1.05,0.45 h -12.05 q -0.55,0 -1,-0.45 -0.45,-0.35 -0.45,-1 V 1339 h 0.1 q 0.05,-0.3 0.35,-0.55 0.45,-0.45 1,-0.45 h 12.05 q 0.6,0 1.05,0.45 0.3,0.25 0.4,0.55 z"
         id="path780" />
      <path
         fill="#464f54"
         stroke="none"
         d="M 2814,1342.55 V 1339 h -0.05 q -0.1,-0.3 -0.4,-0.55 -0.45,-0.45 -1.05,-0.45 h -12.05 q -0.55,0 -1,0.45 -0.3,0.25 -0.35,0.55 h -0.1 v 3.55 q 0,0.65 0.45,1 0.45,0.45 1,0.45 h 12.05 q 0.6,0 1.05,-0.45 0.45,-0.35 0.45,-1 m -7.1,-3.55 v 3.5 h -6.45 v -3.5 z"
         id="path781" />
      <path
         fill="#55636b"
         stroke="none"
         d="m 2806.9,1342.5 v -3.5 h -6.45 v 3.5 z"
         id="path782" />
    </g>
  </defs>
  <g
     transform="translate(-2797,-1335.9976)"
     id="g973">
    <use
       xlink:href="#Layer0_56_FILL"
       id="use973" />
  </g>
</svg>
