<?xml version="1.0" encoding="UTF-8" standalone="no"?>
<svg
   version="1.1"
   preserveAspectRatio="none"
   x="0px"
   y="0px"
   width="25.000002"
   height="10.017029"
   viewBox="0 0 25.000002 10.017029"
   id="svg973"
   xmlns:xlink="http://www.w3.org/1999/xlink"
   xmlns="http://www.w3.org/2000/svg"
   xmlns:svg="http://www.w3.org/2000/svg">
  <defs
     id="defs782">
    <g
       id="Layer0_55_FILL">
      <path
         fill="#2e3438"
         stroke="none"
         d="m 2822,1359 q 0,-0.85 -0.55,-1.4 -0.6,-0.6 -1.45,-0.6 h -7.2 q -0.2,-0.6 -0.65,-1 l 0.05,0.1 q -1.05,-1.2 -2.25,-1.1 H 2800 q -1.2,-0.1 -2.1,1 -0.9,0.75 -0.9,2.25 v 3.5 q 0,1.5 0.9,2.3 0.9,1.05 2.1,0.95 h 9.95 q 1.2,0.1 2.25,-1.05 l -0.05,0.1 q 0.45,-0.45 0.65,-1.05 h 7.2 q 0.85,0 1.45,-0.55 0.55,-0.6 0.55,-1.45 v -2 m -2,0 v 2 h -9 v 0.75 q 0,0.55 -0.3,0.85 -0.35,0.4 -0.75,0.4 H 2800 q -0.4,0 -0.7,-0.4 -0.3,-0.3 -0.3,-0.85 v -3.5 q 0,-0.55 0.3,-0.85 0.3,-0.4 0.7,-0.4 h 9.95 q 0.4,0 0.75,0.4 0.3,0.3 0.3,0.85 v 0.75 z"
         id="path777" />
      <path
         fill="#464f54"
         stroke="none"
         d="m 2800,1357 q -0.4,0 -0.7,0.4 -0.3,0.3 -0.3,0.85 v 3.5 q 0,0.55 0.3,0.85 0.3,0.4 0.7,0.4 h 9.95 q 0.4,0 0.75,-0.4 0.3,-0.3 0.3,-0.85 v -0.75 -2 -0.75 q 0,-0.55 -0.3,-0.85 -0.35,-0.4 -0.75,-0.4 H 2800 m 0,1 h 2.5 v 4 h -2.5 z"
         id="path778" />
      <path
         fill="#55636b"
         stroke="none"
         d="m 2802.5,1358 h -2.5 v 4 h 2.5 v -4 m 17.5,3 v -2 h -9 v 2 z"
         id="path779" />
    </g>
  </defs>
  <g
     transform="translate(-2797,-1354.9916)"
     id="g972">
    <use
       xlink:href="#Layer0_55_FILL"
       id="use972" />
  </g>
</svg>
